<?xml version="1.0" encoding="utf-8"?>
<!-- Generator: Adobe Illustrator 24.0.2, SVG Export Plug-In . SVG Version: 6.00 Build 0)  -->
<svg version="1.1" id="Camada_1" xmlns="http://www.w3.org/2000/svg" xmlns:xlink="http://www.w3.org/1999/xlink" x="0px" y="0px"
	 viewBox="0 0 400 400" style="enable-background:new 0 0 400 400;" xml:space="preserve">
<style type="text/css">
	.st0{fill:#F7F7F7;stroke:#F7F7F7;stroke-width:0.75;stroke-miterlimit:10;}
	.st1{fill:#FFFFFF;}
	.st2{fill:#003B62;stroke:#003B62;stroke-width:6;stroke-miterlimit:10;}
	.st3{fill:#003B62;}
	.st4{fill:#EF7F33;stroke:#EF7F33;stroke-width:3;stroke-miterlimit:10;}
	.st5{fill:none;stroke:#003B62;stroke-width:4;stroke-miterlimit:10;}
	.st6{fill-rule:evenodd;clip-rule:evenodd;fill:#003B62;}
	.st7{fill:#014170;}
</style>
<title>Ativo 18</title>
<ellipse class="st0" cx="200" cy="200.4" rx="169.3" ry="174.4"/>
<g>
	<g>
		<ellipse class="st1" cx="200" cy="200.5" rx="186" ry="188.3"/>
	</g>
	<g>
		<path class="st2" d="M200,393.3C95,393.3,9.5,306.8,9.5,200.5S95,7.7,200,7.7s190.5,86.5,190.5,192.8S305,393.3,200,393.3z
			 M200,16.7C99.9,16.7,18.4,99.2,18.4,200.5c0,101.4,81.5,183.8,181.6,183.8s181.6-82.5,181.6-183.8
			C381.6,99.2,300.1,16.7,200,16.7z"/>
	</g>
</g>
<ellipse class="st0" cx="200" cy="204" rx="169.3" ry="174.4"/>
<g>
	<g>
		<g>
			<g>
				<g>
					<path class="st3" d="M363.5,260.3c1.3-1.8,2.4-3.8,3.3-5.9c-0.8-2.8-0.3-6.4,1.7-8.2c-3.2-2.9-2.7-10.8,1.7-12
						c0.2-2.1,0.4-4.2,0.6-6.3c-0.1-2-0.1-3.9-0.3-5.8c-0.1-1.8,0.2-3.2,0.9-4.2H28.7c0,3.3,0.1,6.6,0.1,9.8
						c0.9,2.7,1.3,5.8,1.3,8.8c1.4,0.5,2.7,1.9,3,4.5c1.1,7.9,3.7,15,6.8,21.9c0.4,1,0.7,1.9,0.7,2.8h321.5
						C361.9,264,362.2,262,363.5,260.3z"/>
				</g>
			</g>
		</g>
	</g>
</g>
<g id="ESSE_1_">
	<g>
		<path class="st4" d="M200,377.3c-96.4,0-174.9-79.2-174.9-176.6c0-97.4,78.5-176.6,174.9-176.6c96.4,0,174.9,79.2,174.9,176.6
			C374.9,298.1,296.4,377.3,200,377.3z M200,29.7c-93.4,0-169.3,76.7-169.3,171c0,94.3,76,171,169.3,171
			c93.4,0,169.3-76.7,169.3-171C369.3,106.4,293.4,29.7,200,29.7z"/>
	</g>
</g>
<g>
	<path class="st1" d="M91,235.1v4.8h8.4v3.4H91v6.6h-4.2v-18.2h13.8v3.4H91z"/>
	<path class="st1" d="M106.4,240.8c0-5.4,4.2-9.4,10-9.4c5.7,0,10,4,10,9.4c0,5.4-4.2,9.4-10,9.4
		C110.6,250.2,106.4,246.2,106.4,240.8z M122,240.8c0-3.5-2.4-5.8-5.7-5.8s-5.7,2.4-5.7,5.8s2.4,5.8,5.7,5.8S122,244.3,122,240.8z"
		/>
	<path class="st1" d="M133.6,241.9v-10.2h4.2v10c0,3.5,1.5,4.9,4.1,4.9c2.6,0,4.1-1.4,4.1-4.9v-10h4.2v10.2c0,5.4-3.1,8.3-8.2,8.3
		C136.7,250.2,133.6,247.2,133.6,241.9z"/>
	<path class="st1" d="M175.3,231.7v18.2h-3.5l-9.1-11.1v11.1h-4.2v-18.2h3.5l9,11.1v-11.1H175.3z"/>
	<path class="st1" d="M183.9,231.7h8.3c6,0,10,3.6,10,9.1c0,5.5-4.1,9.1-10,9.1h-8.3V231.7z M192,246.4c3.6,0,6-2.2,6-5.6
		c0-3.5-2.4-5.6-6-5.6h-3.8v11.3H192z"/>
	<path class="st1" d="M221.4,246H213l-1.6,3.9H207l8.1-18.2h4.2l8.1,18.2H223L221.4,246z M220.1,242.8l-2.9-7l-2.9,7H220.1z"/>
	<path class="st1" d="M236.5,235.1h-5.8v-3.4h15.9v3.4h-5.8v14.8h-4.2V235.1z"/>
	<path class="st1" d="M253.1,231.7h4.2v18.2h-4.2V231.7z"/>
	<path class="st1" d="M264.8,240.8c0-5.4,4.2-9.4,10-9.4c5.7,0,10,4,10,9.4c0,5.4-4.2,9.4-10,9.4C269,250.2,264.8,246.2,264.8,240.8
		z M280.5,240.8c0-3.5-2.4-5.8-5.7-5.8s-5.7,2.4-5.7,5.8s2.4,5.8,5.7,5.8S280.5,244.3,280.5,240.8z"/>
	<path class="st1" d="M308.9,231.7v18.2h-3.5l-9.1-11.1v11.1h-4.2v-18.2h3.5l9,11.1v-11.1H308.9z"/>
</g>
<g>
	<path class="st5" d="M136.8,343.6c-32.4-14.1-59.3-40-75.7-71.2c-5.5-10.5-9.9-21.7-12.8-33.3"/>
	<path class="st5" d="M351.7,238.7c-10.2,45-43.2,84-85.3,103.2"/>
</g>
<path class="st6" d="M178.9,63.5c-0.1-1.8,0.1-3.3,4-4.8c5-2,9.9-4.1,14.8-6.2c1.7-0.7,3.2-0.7,4.8,0c5.1,2.2,10.3,4.3,15.4,6.4
	c2.7,1.1,3.3,2.2,3.3,5.1c-0.1,6-1.2,11.7-3.9,17c-3.3,6.6-8,11.9-14.7,15.3c-1.8,0.9-3.4,0.9-5.2,0c-7-3.5-11.7-9.1-14.9-16
	C180.3,75.4,179.1,70.2,178.9,63.5z M200.1,91.3c0.8-0.4,1.4-0.7,1.9-1c3.3-2,6-4.6,8.1-7.8c3.4-5.1,5.3-10.8,5.5-17
	c0.1-1.4,0.1-1.4-1.2-2c-4.3-1.8-8.5-3.6-12.8-5.4c-0.5-0.2-0.9-0.3-1.5-0.6C200.1,68.9,200.1,79.9,200.1,91.3z"/>
<g>
	<g>
		<g>
			<path class="st7" d="M138.5,293.9h3.3v18.6h-3.3V293.9z"/>
			<path class="st7" d="M144.8,293.9h18.1v3h-7.4v15.6h-3.3v-15.6h-7.4V293.9z"/>
			<path class="st7" d="M182.8,295.2l-1.2,2.9c-2-1.1-4.1-1.6-6.4-1.6c-2.4,0-4.3,0.6-5.7,1.8c-1.4,1.2-2.1,2.8-2.1,4.8
				c0,2.1,0.8,3.7,2.3,5c1.5,1.3,3.5,1.9,6,1.9c2.6,0,4.9-0.7,7-2v3.4c-2,1.1-4.4,1.6-7.1,1.6c-3.4,0-6.2-0.9-8.3-2.7
				c-2.1-1.8-3.2-4.2-3.2-7.1c0-2.8,1-5.1,3.1-6.9c2.1-1.8,4.8-2.6,8.2-2.6C177.8,293.6,180.3,294.1,182.8,295.2z"/>
			<path class="st7" d="M185.7,293.9h15.5v2.9H189v4.9h11.4l-1.2,2.8H189v5h13v2.9h-16.3V293.9z"/>
			<path class="st7" d="M204.2,293.9h10.9c2.1,0,3.8,0.5,5.1,1.5c1.3,1,1.9,2.4,1.9,4.1c0,1.4-0.4,2.6-1.3,3.6
				c-0.9,0.9-2,1.6-3.6,1.8l5.7,7.5h-4.2l-5.3-7.2h-4.5l1.2-2.9h5.2c1,0,1.8-0.2,2.4-0.7c0.6-0.5,0.9-1.2,0.9-2
				c0-0.9-0.3-1.5-0.9-2.1c-0.6-0.5-1.4-0.8-2.4-0.8h-8v15.7h-3.3V293.9z"/>
			<path class="st7" d="M223.7,293.9h18.1v3h-7.4v15.6h-3.3v-15.6h-7.4V293.9z"/>
			<path class="st7" d="M260.7,295.3l-1.1,2.8c-2.5-1.1-4.9-1.7-7.4-1.7c-3.4,0-5.1,0.8-5.1,2.4c0,1.3,1.1,2,3.3,2.3l5.1,0.6
				c4,0.5,6,2.3,6,5.5c0,3.8-2.8,5.6-8.5,5.6c-3.5,0-6.7-0.7-9.7-2l1.2-3c2.8,1.4,5.7,2,8.6,2c3.3,0,5-0.9,5-2.6
				c0-1.3-1.2-2.1-3.5-2.4l-5.1-0.6c-1.9-0.2-3.3-0.8-4.4-1.7c-1-0.9-1.5-2.1-1.5-3.6c0-1.8,0.7-3.1,2.2-4.1
				c1.5-0.9,3.6-1.4,6.3-1.4C255.1,293.6,257.9,294.2,260.7,295.3z"/>
		</g>
	</g>
</g>
<g>
	<path class="st3" d="M142,343.3c1.5-4.1,5.7-6,10-4.5c2.4,0.8,4.1,2.4,4.8,4.4l-2.7,1.2c-0.5-1.4-1.5-2.3-2.9-2.8
		c-2.6-0.9-5,0.2-6,2.8c-0.9,2.6,0.3,5,2.9,5.9c1.4,0.5,2.7,0.3,4-0.4l1.4,2.6c-1.9,1.1-4.1,1.3-6.5,0.4
		C142.6,351.5,140.5,347.4,142,343.3z"/>
	<path class="st3" d="M168.5,355.8l-0.6,2.6l-11-2.6l3.3-14.2l10.7,2.5l-0.6,2.6l-7.5-1.7l-0.7,3.1l6.6,1.5l-0.6,2.6l-6.6-1.5
		l-0.8,3.3L168.5,355.8z"/>
	<path class="st3" d="M181.7,360.4l-2.3-4.4l-0.2,0l-2.9-0.4l-0.5,4l-3.4-0.4l1.7-14.5l6.3,0.8c3.9,0.5,6,2.8,5.7,6
		c-0.3,2.2-1.5,3.6-3.5,4.2l2.7,5L181.7,360.4z M180,348.3l-2.7-0.3l-0.6,5l2.7,0.3c2,0.2,3.2-0.6,3.4-2.1
		C183,349.6,182.1,348.5,180,348.3z"/>
	<path class="st3" d="M192.7,349.2l-4.7-0.1l0-2.7l12.7,0.2l0,2.7l-4.7-0.1l-0.2,11.8l-3.4-0.1L192.7,349.2z"/>
	<path class="st3" d="M203.2,346.4l3.4-0.2l0.8,14.5l-3.4,0.2L203.2,346.4z"/>
	<path class="st3" d="M214.4,348.2l0.5,3.8l6.7-0.9l0.4,2.7l-6.7,0.9l0.7,5.3l-3.3,0.4l-1.9-14.4l10.9-1.5l0.4,2.7L214.4,348.2z"/>
	<path class="st3" d="M224.4,343.8l3.3-0.7l3.1,14.2l-3.3,0.7L224.4,343.8z"/>
	<path class="st3" d="M245.9,350.4l0.8,2.6l-10.8,3.2l-4.2-13.9l10.6-3.2l0.8,2.6l-7.4,2.2l0.9,3l6.5-1.9l0.8,2.5l-6.5,1.9l1,3.2
		L245.9,350.4z"/>
	<path class="st3" d="M245.5,338l6.1-2.6c4.4-1.9,8.5-0.6,10.3,3.5c1.8,4-0.1,8-4.5,9.9l-6.1,2.6L245.5,338z M256.1,346.2
		c2.7-1.1,3.7-3.5,2.6-6c-1.1-2.6-3.5-3.4-6.2-2.2l-2.8,1.2l3.6,8.3L256.1,346.2z"/>
</g>
<g>
	<g>
		<path class="st3" d="M88.7,146.8V165h-3.5l-9.1-11.1V165H72v-18.2h3.5l9,11.1v-11.1H88.7z"/>
		<path class="st3" d="M93,146.8h4.2V165H93V146.8z"/>
		<path class="st3" d="M100.1,163.2l1.4-3.2c1.5,1.1,3.8,1.9,6,1.9c2.5,0,3.5-0.8,3.5-2c0-3.4-10.6-1.1-10.6-7.8
			c0-3.1,2.5-5.7,7.7-5.7c2.3,0,4.6,0.5,6.3,1.6l-1.3,3.2c-1.7-1-3.4-1.4-5-1.4c-2.5,0-3.5,0.9-3.5,2.1c0,3.4,10.6,1,10.6,7.7
			c0,3-2.5,5.6-7.7,5.6C104.6,165.3,101.7,164.4,100.1,163.2z"/>
		<path class="st3" d="M121.6,150.2h-5.8v-3.4h15.9v3.4h-5.8V165h-4.2V150.2z"/>
		<path class="st3" d="M140.1,155.9c0-5.5,4.2-9.4,9.9-9.4c3.1,0,5.8,1.1,7.5,3.2l-2.7,2.5c-1.2-1.4-2.8-2.1-4.6-2.1
			c-3.4,0-5.8,2.4-5.8,5.8c0,3.4,2.4,5.8,5.8,5.8c1.8,0,3.4-0.7,4.6-2.2l2.7,2.5c-1.7,2.1-4.3,3.2-7.5,3.2
			C144.3,165.3,140.1,161.4,140.1,155.9z"/>
		<path class="st3" d="M173.9,151l-6.3,14.8c-1.4,3.4-3.3,4.4-5.8,4.4c-1.4,0-3-0.5-3.9-1.3l1.5-2.9c0.6,0.5,1.5,0.9,2.3,0.9
			c1.1,0,1.7-0.5,2.3-1.7l0.1-0.1L158,151h4.2l3.9,9.5l4-9.5H173.9z"/>
		<path class="st3" d="M190.8,158c0,4.4-3,7.2-7,7.2c-1.9,0-3.4-0.6-4.4-1.8v1.6h-3.9v-19.3h4.1v6.8c1-1.1,2.5-1.7,4.2-1.7
			C187.8,150.8,190.8,153.6,190.8,158z M186.7,158c0-2.4-1.5-3.9-3.6-3.9s-3.6,1.5-3.6,3.9s1.5,3.9,3.6,3.9S186.7,160.4,186.7,158z"
			/>
		<path class="st3" d="M207.2,159.1h-10.6c0.4,1.7,1.9,2.8,4,2.8c1.5,0,2.5-0.4,3.5-1.4l2.2,2.3c-1.3,1.5-3.2,2.3-5.8,2.3
			c-4.8,0-8-3-8-7.2c0-4.2,3.2-7.2,7.5-7.2c4.1,0,7.3,2.8,7.3,7.3C207.2,158.3,207.2,158.8,207.2,159.1z M196.5,156.8h6.9
			c-0.3-1.8-1.6-2.9-3.4-2.9C198.1,153.8,196.8,155,196.5,156.8z"/>
		<path class="st3" d="M218.6,150.8v3.7c-0.3,0-0.6-0.1-0.9-0.1c-2.2,0-3.7,1.2-3.7,3.9v6.6h-4.1v-14h3.9v1.8
			C214.8,151.5,216.5,150.8,218.6,150.8z"/>
		<path class="st3" d="M219.7,163.7l1.4-2.9c1.2,0.8,3.1,1.4,4.9,1.4c1.9,0,2.6-0.5,2.6-1.3c0-2.3-8.5,0.1-8.5-5.5
			c0-2.7,2.4-4.5,6.5-4.5c1.9,0,4.1,0.4,5.4,1.2l-1.4,2.9c-1.4-0.8-2.8-1-4-1c-1.8,0-2.6,0.6-2.6,1.3c0,2.4,8.5,0.1,8.5,5.6
			c0,2.6-2.4,4.4-6.6,4.4C223.4,165.2,221,164.5,219.7,163.7z"/>
		<path class="st3" d="M248.5,159.1h-10.6c0.4,1.7,1.9,2.8,4,2.8c1.5,0,2.5-0.4,3.5-1.4l2.2,2.3c-1.3,1.5-3.3,2.3-5.8,2.3
			c-4.8,0-8-3-8-7.2c0-4.2,3.2-7.2,7.5-7.2c4.1,0,7.3,2.8,7.3,7.3C248.6,158.3,248.5,158.8,248.5,159.1z M237.9,156.8h6.9
			c-0.3-1.8-1.6-2.9-3.4-2.9C239.5,153.8,238.2,155,237.9,156.8z"/>
		<path class="st3" d="M250.3,158c0-4.2,3.2-7.2,7.8-7.2c2.9,0,5.3,1.3,6.3,3.6l-3.1,1.7c-0.8-1.3-1.9-1.9-3.1-1.9
			c-2.1,0-3.7,1.4-3.7,3.9s1.6,3.9,3.7,3.9c1.3,0,2.4-0.6,3.1-1.9l3.1,1.7c-1,2.2-3.3,3.5-6.3,3.5
			C253.5,165.2,250.3,162.2,250.3,158z"/>
		<path class="st3" d="M280.8,151v14h-3.8v-1.7c-1.1,1.2-2.6,1.9-4.3,1.9c-3.5,0-6-2-6-6.3V151h4.1v7.3c0,2.3,1,3.4,2.8,3.4
			c1.9,0,3.2-1.2,3.2-3.8V151H280.8z"/>
		<path class="st3" d="M293.2,150.8v3.7c-0.3,0-0.6-0.1-0.9-0.1c-2.2,0-3.7,1.2-3.7,3.9v6.6h-4.1v-14h3.9v1.8
			C289.4,151.5,291.1,150.8,293.2,150.8z"/>
		<path class="st3" d="M295.1,146.8c0-1.3,1-2.3,2.5-2.3c1.5,0,2.5,0.9,2.5,2.2c0,1.4-1,2.3-2.5,2.3
			C296.2,149,295.1,148,295.1,146.8z M295.6,151h4.1v14h-4.1V151z"/>
		<path class="st3" d="M312.5,164.3c-0.8,0.6-2.1,0.9-3.3,0.9c-3.3,0-5.2-1.7-5.2-5v-5.7h-2.2v-3.1h2.2v-3.4h4.1v3.4h3.5v3.1H308
			v5.7c0,1.2,0.7,1.8,1.7,1.8c0.6,0,1.2-0.2,1.6-0.5L312.5,164.3z"/>
		<path class="st3" d="M328.4,151l-6.3,14.8c-1.4,3.4-3.3,4.4-5.8,4.4c-1.4,0-3-0.5-3.9-1.3l1.5-2.9c0.6,0.5,1.5,0.9,2.3,0.9
			c1.1,0,1.7-0.5,2.3-1.7l0.1-0.1l-6.1-14.1h4.2l3.9,9.5l4-9.5H328.4z"/>
		<path class="st3" d="M127.2,180.1v4.8h8.4v3.4h-8.4v6.6H123v-18.2h13.8v3.4H127.2z"/>
		<path class="st3" d="M147.8,180.8v3.7c-0.3,0-0.6-0.1-0.9-0.1c-2.2,0-3.7,1.2-3.7,3.9v6.6h-4.1v-14h3.9v1.8
			C144,181.5,145.6,180.8,147.8,180.8z"/>
		<path class="st3" d="M162.5,187v8h-3.8v-1.7c-0.8,1.3-2.2,2-4.3,2c-3.3,0-5.2-1.8-5.2-4.2c0-2.5,1.7-4.2,6-4.2h3.2
			c0-1.7-1-2.8-3.2-2.8c-1.5,0-3,0.5-4,1.3l-1.5-2.8c1.5-1.1,3.8-1.7,6-1.7C160,180.8,162.5,182.7,162.5,187z M158.4,190.5v-1.4
			h-2.8c-1.9,0-2.5,0.7-2.5,1.6c0,1,0.9,1.7,2.3,1.7C156.8,192.4,158,191.8,158.4,190.5z"/>
		<path class="st3" d="M189.8,187v8h-4.1v-7.4c0-2.3-1-3.3-2.7-3.3c-1.8,0-3.1,1.2-3.1,3.7v7h-4.1v-7.4c0-2.3-1-3.3-2.7-3.3
			c-1.8,0-3.1,1.2-3.1,3.7v7h-4.1v-14h3.9v1.6c1-1.2,2.6-1.8,4.4-1.8c2,0,3.6,0.8,4.6,2.3c1.1-1.4,2.9-2.3,5-2.3
			C187.4,180.8,189.8,182.7,189.8,187z"/>
		<path class="st3" d="M207.2,189.1h-10.6c0.4,1.7,1.9,2.8,4,2.8c1.5,0,2.5-0.4,3.5-1.4l2.2,2.3c-1.3,1.5-3.3,2.3-5.8,2.3
			c-4.8,0-8-3-8-7.2c0-4.2,3.2-7.2,7.5-7.2c4.1,0,7.3,2.8,7.3,7.3C207.3,188.3,207.2,188.8,207.2,189.1z M196.6,186.8h6.9
			c-0.3-1.8-1.6-2.9-3.4-2.9C198.2,183.8,196.9,185,196.6,186.8z"/>
		<path class="st3" d="M232.2,181l-5.1,14h-3.9l-3.1-8.7l-3.2,8.7h-3.9l-5-14h3.8l3.3,9.5l3.4-9.5h3.4l3.3,9.5l3.4-9.5H232.2z"/>
		<path class="st3" d="M232.7,188c0-4.2,3.2-7.2,7.7-7.2s7.7,3,7.7,7.2s-3.2,7.2-7.7,7.2S232.7,192.2,232.7,188z M243.9,188
			c0-2.4-1.5-3.9-3.6-3.9s-3.6,1.5-3.6,3.9s1.6,3.9,3.6,3.9S243.9,190.4,243.9,188z"/>
		<path class="st3" d="M259.4,180.8v3.7c-0.3,0-0.6-0.1-0.9-0.1c-2.2,0-3.7,1.2-3.7,3.9v6.6h-4.1v-14h3.9v1.8
			C255.6,181.5,257.3,180.8,259.4,180.8z"/>
		<path class="st3" d="M267.9,189.5l-2,1.9v3.6h-4.1v-19.3h4.1v10.9l5.9-5.6h4.8l-5.8,5.9l6.3,8.1h-4.9L267.9,189.5z"/>
	</g>
</g>
</svg>
